<?xml version="1.0" standalone="no"?>
<!DOCTYPE svg PUBLIC "-//W3C//DTD SVG 20010904//EN"
 "http://www.w3.org/TR/2001/REC-SVG-20010904/DTD/svg10.dtd">
<svg version="1.0" xmlns="http://www.w3.org/2000/svg"
 width="512.000000pt" height="512.000000pt" viewBox="0 0 512.000000 512.000000"
 preserveAspectRatio="xMidYMid meet">
<metadata>
Created by potrace 1.14, written by Peter Selinger 2001-2017
</metadata>
<g transform="translate(0.000000,512.000000) scale(0.100000,-0.100000)"
fill="#000000" stroke="none">
<path d="M552 4993 c-99 -49 -201 -256 -276 -563 -234 -951 -233 -2592 0
-3522 218 -868 543 -742 728 282 215 1193 116 3029 -195 3631 -84 162 -166
217 -257 172z m79 -94 c63 -33 156 -247 218 -499 252 -1031 220 -2864 -64
-3680 -61 -174 -132 -290 -179 -290 -33 0 -103 110 -155 244 -213 545 -307
1791 -216 2846 59 671 189 1206 331 1357 35 37 37 37 65 22z"/>
<path d="M4868 2715 c-36 -9 -125 -35 -197 -60 -954 -327 -2891 -1513 -3610
-2210 -169 -164 -251 -282 -237 -339 43 -173 854 147 1905 751 949 547 1908
1231 2226 1591 116 131 152 209 117 252 -24 30 -107 36 -204 15z m93 -102
c-19 -36 -142 -168 -238 -255 -561 -513 -1762 -1298 -2743 -1792 -441 -223
-819 -375 -995 -402 l-49 -7 34 44 c360 464 1838 1465 3039 2058 387 191 698
318 874 356 86 19 90 18 78 -2z"/>
</g>
</svg>
